<?xml version="1.0" encoding="utf-8"?>
<!-- Generator: Adobe Illustrator 16.0.0, SVG Export Plug-In . SVG Version: 6.00 Build 0)  -->
<!DOCTYPE svg PUBLIC "-//W3C//DTD SVG 1.0//EN" "http://www.w3.org/TR/2001/REC-SVG-20010904/DTD/svg10.dtd">
<svg version="1.0" id="Layer_1" xmlns="http://www.w3.org/2000/svg" xmlns:xlink="http://www.w3.org/1999/xlink" x="0px" y="0px"
	 width="26px" height="26px" viewBox="0 0 26 26" enable-background="new 0 0 26 26" xml:space="preserve">
<path fill="#27272E" d="M23,1H3C1.896,1,1,1.896,1,3v20c0,1.104,0.896,2,2,2h20c1.104,0,2-0.896,2-2V3C25,1.896,24.104,1,23,1z
	 M16.8,11.6l-3,4C13.611,15.852,13.314,16,13,16s-0.611-0.148-0.8-0.4l-3-4c-0.228-0.303-0.264-0.708-0.095-1.047
	C9.275,10.214,9.621,10,10,10h3h3c0.379,0,0.725,0.214,0.895,0.553C17.063,10.892,17.027,11.297,16.8,11.6z"/>
</svg>
