<?xml version="1.0" encoding="utf-8"?>
<!-- Generator: Adobe Illustrator 16.0.0, SVG Export Plug-In . SVG Version: 6.00 Build 0)  -->
<!DOCTYPE svg PUBLIC "-//W3C//DTD SVG 1.0//EN" "http://www.w3.org/TR/2001/REC-SVG-20010904/DTD/svg10.dtd">
<svg version="1.0" id="Layer_1" xmlns="http://www.w3.org/2000/svg" xmlns:xlink="http://www.w3.org/1999/xlink" x="0px" y="0px"
	 width="28px" height="28px" viewBox="0 0 28 28" enable-background="new 0 0 28 28" xml:space="preserve">
<g>
	<path fill="#FFFFFF" d="M14,15c-3.364,0-6-3.451-6-7.857C8,5.386,8.573,3.884,9.657,2.8C10.817,1.639,12.359,1,14,1
		c1.64,0,3.183,0.639,4.344,1.799C19.428,3.883,20,5.385,20,7.143C20,11.549,17.364,15,14,15z"/>
	<path fill="#FFFFFF" d="M24,27H4c-1.654,0-3-1.346-3-3c0-4.336,3.663-8,8-8c0.099,0,0.196,0.015,0.291,0.043
		C10.166,16.31,12.719,17,14,17c1.282,0,3.834-0.69,4.709-0.957C18.804,16.015,18.901,16,19,16c4.337,0,8,3.664,8,8
		C27,25.654,25.654,27,24,27z"/>
</g>
<path d="M1401,186c-3.364,0-6-3.451-6-7.857c0-1.757,0.573-3.259,1.657-4.343c1.16-1.161,2.702-1.8,4.343-1.8
	c1.64,0,3.183,0.639,4.344,1.799c1.084,1.084,1.656,2.586,1.656,4.344C1407,182.549,1404.364,186,1401,186z M1401,174
	c-1.106,0-2.146,0.432-2.929,1.214c-0.886,0.886-1.071,2.081-1.071,2.929c0,3.23,1.794,5.857,4,5.857s4-2.627,4-5.857
	c0-0.848-0.186-2.044-1.07-2.929C1403.146,174.432,1402.106,174,1401,174z"/>
<path d="M1411,198h-20c-1.654,0-3-1.346-3-3c0-4.336,3.663-8,8-8c0.099,0,0.196,0.015,0.291,0.043
	c0.875,0.267,3.428,0.957,4.709,0.957c1.282,0,3.834-0.69,4.709-0.957c0.095-0.028,0.192-0.043,0.291-0.043c4.337,0,8,3.664,8,8
	C1414,196.654,1412.654,198,1411,198z M1395.859,189.002c-3.19,0.077-5.859,2.793-5.859,5.998c0,0.551,0.448,1,1,1h20
	c0.552,0,1-0.449,1-1c0-3.205-2.669-5.921-5.859-5.998c-0.688,0.202-3.498,0.998-5.141,0.998S1396.548,189.204,1395.859,189.002z"/>
</svg>
