<?xml version="1.0" encoding="utf-8"?>
<!-- Generator: Adobe Illustrator 16.0.0, SVG Export Plug-In . SVG Version: 6.00 Build 0)  -->
<!DOCTYPE svg PUBLIC "-//W3C//DTD SVG 1.0//EN" "http://www.w3.org/TR/2001/REC-SVG-20010904/DTD/svg10.dtd">
<svg version="1.0" id="Layer_1" xmlns="http://www.w3.org/2000/svg" xmlns:xlink="http://www.w3.org/1999/xlink" x="0px" y="0px"
	 width="58px" height="32px" viewBox="0 0 58 32" enable-background="new 0 0 58 32" xml:space="preserve">
<g>
	<g>
		<path fill="#2E2014" d="M1620.5,226c-0.326,0-0.602,0.209-0.703,0.5H1611c-0.414,0-0.75,0.336-0.75,0.75s0.336,0.75,0.75,0.75
			c0.326,0,0.602-0.209,0.703-0.5h8.797c0.414,0,0.75-0.336,0.75-0.75S1620.914,226,1620.5,226z"/>
		<g>
			<path fill="#2E2014" d="M1611.932,239.076c-0.014-0.051-0.024-0.102-0.047-0.148c-0.021-0.053-0.051-0.101-0.078-0.148
				c-0.02-0.035-0.035-0.073-0.059-0.108c-0.109-0.165-0.252-0.307-0.416-0.417c-0.035-0.021-0.072-0.038-0.107-0.059
				c-0.051-0.027-0.098-0.059-0.149-0.078c-0.049-0.021-0.101-0.031-0.148-0.049c-0.043-0.012-0.086-0.027-0.131-0.039
				c-0.192-0.036-0.395-0.036-0.586,0c-0.047,0.012-0.088,0.027-0.135,0.039c-0.049,0.018-0.101,0.027-0.146,0.049
				c-0.053,0.021-0.102,0.052-0.149,0.078c-0.035,0.021-0.072,0.035-0.105,0.059c-0.084,0.057-0.162,0.119-0.232,0.188l-3.938,3.938
				l-3.938-3.938c-0.07-0.067-0.146-0.133-0.229-0.188c-0.037-0.023-0.078-0.042-0.115-0.062c-0.047-0.024-0.094-0.055-0.143-0.073
				c-0.053-0.021-0.104-0.033-0.154-0.05c-0.043-0.012-0.082-0.026-0.127-0.036c-0.192-0.038-0.395-0.038-0.588,0
				c-0.043,0.01-0.084,0.024-0.127,0.036c-0.051,0.017-0.104,0.027-0.152,0.05c-0.051,0.021-0.096,0.049-0.143,0.073
				c-0.039,0.021-0.078,0.039-0.115,0.062c-0.164,0.109-0.307,0.251-0.416,0.416c-0.022,0.036-0.041,0.075-0.061,0.112
				c-0.027,0.048-0.058,0.094-0.076,0.146c-0.021,0.051-0.033,0.102-0.049,0.151c-0.015,0.043-0.029,0.084-0.037,0.129
				c-0.021,0.097-0.029,0.194-0.029,0.293v10c0,0.828,0.672,1.5,1.5,1.5s1.5-0.672,1.5-1.5v-6.379l2.438,2.438
				c0.293,0.293,0.678,0.438,1.062,0.438c0.383,0,0.769-0.146,1.062-0.438l2.438-2.438v6.379c0,0.828,0.672,1.5,1.5,1.5
				s1.5-0.672,1.5-1.5v-10c0-0.099-0.01-0.196-0.029-0.293C1611.961,239.162,1611.945,239.12,1611.932,239.076z"/>
		</g>
		<g>
			<path fill="#2E2014" d="M1622.621,244.5l3.938-3.939c0.587-0.586,0.587-1.535,0-2.121c-0.586-0.586-1.534-0.586-2.12,0
				l-3.939,3.939l-3.939-3.939c-0.586-0.586-1.534-0.586-2.12,0s-0.587,1.535,0,2.121l3.938,3.939l-3.938,3.939
				c-0.587,0.586-0.587,1.535,0,2.121c0.586,0.586,1.534,0.586,2.12,0l3.939-3.939l3.939,3.939c0.293,0.293,0.676,0.438,1.061,0.438
				s0.768-0.146,1.061-0.438c0.587-0.586,0.587-1.535,0-2.121L1622.621,244.5z"/>
		</g>
		<path fill="#2E2014" d="M1580,234h-5c-0.133,0-0.26-0.053-0.354-0.146l-3.5-3.5c-0.095-0.094-0.146-0.221-0.146-0.354v-5
			c0-0.133,0.053-0.26,0.146-0.354l3.5-3.5c0.094-0.095,0.221-0.146,0.354-0.146h5c0.133,0,0.26,0.053,0.354,0.146l3.5,3.5
			c0.095,0.094,0.146,0.221,0.146,0.354v5c0,0.133-0.053,0.26-0.146,0.354l-3.5,3.5C1580.26,233.947,1580.133,234,1580,234z
			 M1575.207,233h4.586l3.207-3.207v-4.586l-3.207-3.207h-4.586l-3.207,3.207v4.586L1575.207,233z"/>
		<circle fill="#2E2014" cx="1576.25" cy="225.75" r="0.75"/>
		<rect x="1576.25" y="225" fill="#2E2014" width="7.25" height="1"/>
		<circle fill="#2E2014" cx="1578.75" cy="229.25" r="0.75"/>
		<rect x="1571.5" y="229" fill="#2E2014" width="7.25" height="1"/>
		<path fill="#2E2014" d="M1603,234h-5c-0.133,0-0.26-0.053-0.354-0.146l-3.5-3.5c-0.095-0.094-0.146-0.221-0.146-0.354v-5
			c0-0.133,0.053-0.26,0.146-0.354l3.5-3.5c0.094-0.095,0.221-0.146,0.354-0.146h5c0.133,0,0.26,0.053,0.354,0.146l3.5,3.5
			c0.095,0.094,0.146,0.221,0.146,0.354v5c0,0.133-0.053,0.26-0.146,0.354l-3.5,3.5C1603.26,233.947,1603.133,234,1603,234z
			 M1598.207,233h4.586l3.207-3.207v-4.586l-3.207-3.207h-4.586l-3.207,3.207v4.586L1598.207,233z"/>
		<circle fill="#2E2014" cx="1602.25" cy="227.75" r="0.75"/>
		<path fill="#2E2014" d="M1602.5,230h-4c-0.275,0-0.5-0.225-0.5-0.5v-4c0-0.275,0.225-0.5,0.5-0.5h8v1h-7.5v3h3v-1.25h1v1.75
			C1603,229.775,1602.775,230,1602.5,230z"/>
		<g>
			<circle fill="#2E2014" cx="1588.75" cy="225.75" r="0.75"/>
			<rect x="1588.75" y="225" fill="#2E2014" width="2.75" height="1"/>
			<path fill="#2E2014" d="M1591.5,234h-5c-0.275,0-0.5-0.225-0.5-0.5v-12c0-0.275,0.225-0.5,0.5-0.5h5c0.275,0,0.5,0.225,0.5,0.5
				v12C1592,233.775,1591.775,234,1591.5,234z M1587,233h4v-11h-4V233z"/>
		</g>
	</g>
	<rect x="1570" y="220" fill="none" width="58" height="32"/>
</g>
<path fill="#988273" d="M1590.334,238c0,0-4.428,0-4.584,0c-0.414,0-0.75,0.336-0.75,0.75s0.336,0.75,0.75,0.75
	c0.088,0,0.172-0.018,0.25-0.045v10.092c-0.078-0.029-0.162-0.047-0.25-0.047c-0.414,0-0.75,0.336-0.75,0.75s0.336,0.75,0.75,0.75
	c0.156,0,4.584,0,4.584,0c1.951,0,3.723-0.666,4.984-1.877c1.239-1.191,1.922-2.832,1.922-4.623v-0.037
	C1597.24,240.719,1594.336,238,1590.334,238z M1596.203,244.537c0,1.527-0.562,2.922-1.586,3.924
	c-1.072,1.055-2.556,1.539-4.283,1.539H1587v-11h3.334c1.725,0,3.205,0.492,4.283,1.564c1.021,1.016,1.586,2.412,1.586,3.936
	V244.537L1596.203,244.537z"/>
<path fill="#988273" d="M1582.75,248c-0.207,0-0.395,0.084-0.529,0.221c-0.137,0.135-0.221,0.322-0.221,0.529
	c0,0.119,0.029,0.23,0.078,0.33c-1.1,0.869-2.209,1.254-3.584,1.254c-1.486,0-2.867-0.596-3.883-1.68
	c-1.017-1.082-1.574-2.549-1.574-4.129v-0.037c0-1.574,0.553-3.031,1.559-4.104c1.008-1.075,2.387-1.669,3.881-1.669
	c1.355,0,2.486,0.389,3.586,1.237c-0.038,0.092-0.061,0.19-0.061,0.297c0,0.207,0.084,0.396,0.219,0.53
	c0.137,0.136,0.324,0.22,0.531,0.22s0.395-0.084,0.529-0.22c0.137-0.137,0.221-0.323,0.221-0.53s-0.084-0.396-0.221-0.53
	c-0.035-0.033-0.07-0.064-0.111-0.093c-1.086-0.914-2.434-1.817-4.676-1.817c-1.791,0-3.441,0.703-4.65,1.979
	c-1.188,1.254-1.842,2.937-1.842,4.735v0.037c0,1.813,0.65,3.498,1.836,4.737c1.195,1.252,2.838,1.94,4.621,1.94
	c1.92,0,3.297-0.543,4.822-1.961c0.137-0.137,0.221-0.323,0.221-0.53s-0.084-0.396-0.221-0.529S1582.957,248,1582.75,248z"/>
<g>
	<path fill="#FFFFFF" d="M13.047,28.391c-0.127,0-0.246,0.053-0.347,0.152c-1.313,1.256-2.571,1.791-4.206,1.791
		c-1.486,0-2.866-0.598-3.883-1.682c-1.016-1.082-1.574-2.549-1.574-4.129v-0.037c0-1.574,0.553-3.031,1.559-4.104
		c1.008-1.074,2.387-1.668,3.881-1.668c1.574,0,2.842,0.518,4.112,1.678c0.082,0.082,0.218,0.135,0.347,0.135
		c0.275,0,0.518-0.231,0.518-0.498c0-0.143-0.062-0.273-0.191-0.403c-1.106-0.942-2.449-1.815-4.768-1.815
		c-1.791,0-3.443,0.703-4.652,1.979C2.654,21.043,2,22.725,2,24.523v0.037c0,1.815,0.652,3.498,1.838,4.737
		c1.195,1.252,2.837,1.941,4.619,1.941c1.922,0,3.391-0.604,4.916-2.021c0.102-0.102,0.154-0.221,0.154-0.347
		C13.527,28.619,13.298,28.391,13.047,28.391z"/>
	<path fill="#FFFFFF" d="M20.334,18H16.5c-0.271,0-0.5,0.229-0.5,0.5v12c0,0.27,0.229,0.5,0.5,0.5h3.834
		c1.953,0,3.723-0.668,4.984-1.879c1.24-1.189,1.922-2.83,1.922-4.621v-0.037C27.24,20.718,24.336,18,20.334,18z M20.334,30H17V19
		h3.334c1.725,0,3.206,0.492,4.285,1.562c1.021,1.016,1.584,2.414,1.584,3.938v0.037c0,1.527-0.562,2.92-1.584,3.924
		C23.545,29.516,22.062,30,20.334,30z"/>
	<g>
		<path fill="#FFFFFF" d="M41.932,19.076c-0.014-0.051-0.024-0.102-0.046-0.15c-0.021-0.052-0.051-0.1-0.077-0.148
			c-0.021-0.035-0.037-0.073-0.061-0.108c-0.109-0.164-0.252-0.308-0.416-0.416c-0.035-0.022-0.072-0.039-0.107-0.06
			c-0.05-0.026-0.098-0.057-0.149-0.079c-0.05-0.021-0.101-0.031-0.148-0.046c-0.044-0.014-0.086-0.029-0.132-0.039
			c-0.193-0.038-0.395-0.038-0.587,0c-0.046,0.01-0.088,0.025-0.132,0.039c-0.051,0.015-0.102,0.025-0.146,0.046
			c-0.055,0.022-0.103,0.053-0.152,0.079c-0.035,0.021-0.072,0.035-0.105,0.06c-0.084,0.056-0.161,0.117-0.23,0.188L35.5,22.379
			l-3.938-3.939c-0.07-0.069-0.148-0.133-0.23-0.188c-0.037-0.025-0.076-0.041-0.115-0.062c-0.047-0.024-0.092-0.055-0.143-0.074
			c-0.051-0.021-0.102-0.032-0.153-0.049c-0.042-0.012-0.083-0.028-0.126-0.037c-0.195-0.038-0.395-0.038-0.588,0
			c-0.045,0.009-0.084,0.025-0.127,0.037c-0.051,0.017-0.104,0.027-0.153,0.049c-0.049,0.021-0.097,0.05-0.144,0.074
			c-0.038,0.021-0.078,0.039-0.115,0.062c-0.164,0.109-0.305,0.252-0.415,0.416c-0.024,0.035-0.04,0.074-0.062,0.111
			c-0.025,0.049-0.056,0.096-0.076,0.146c-0.021,0.049-0.032,0.102-0.047,0.152c-0.014,0.043-0.029,0.084-0.039,0.127
			C29.011,19.303,29,19.4,29,19.5v10c0,0.828,0.672,1.5,1.5,1.5s1.5-0.672,1.5-1.5v-6.379l2.439,2.439
			C34.732,25.854,35.117,26,35.5,26c0.385,0,0.768-0.146,1.061-0.439L39,23.121V29.5c0,0.828,0.672,1.5,1.5,1.5
			c0.829,0,1.5-0.672,1.5-1.5v-10c0-0.1-0.01-0.197-0.029-0.295C41.962,19.16,41.945,19.119,41.932,19.076z"/>
	</g>
	<g>
		<path fill="#FFFFFF" d="M52.621,24.5l3.939-3.939c0.586-0.586,0.586-1.535,0-2.121s-1.535-0.586-2.121,0L50.5,22.379l-3.939-3.939
			c-0.586-0.586-1.535-0.586-2.121,0s-0.586,1.535,0,2.121l3.939,3.939l-3.939,3.939c-0.586,0.586-0.586,1.535,0,2.121
			s1.535,0.586,2.121,0l3.939-3.939l3.939,3.939C54.732,30.854,55.117,31,55.5,31c0.385,0,0.768-0.146,1.061-0.439
			c0.586-0.586,0.586-1.535,0-2.121L52.621,24.5z"/>
	</g>
	<path fill="#FFFFFF" d="M13.059,28.381c-0.127,0-0.247,0.053-0.347,0.154c-1.318,1.258-2.579,1.795-4.218,1.795
		c-1.491,0-2.873-0.6-3.894-1.686c-1.018-1.086-1.578-2.555-1.578-4.141v-0.036c0-1.579,0.554-3.04,1.562-4.115
		c1.012-1.079,2.394-1.673,3.892-1.673c1.577,0,2.851,0.52,4.124,1.683c0.082,0.083,0.22,0.136,0.347,0.136
		c0.277,0,0.521-0.234,0.521-0.502c0-0.143-0.063-0.274-0.193-0.404c-1.109-0.946-2.456-1.822-4.781-1.822
		c-1.794,0-3.452,0.705-4.664,1.986c-1.191,1.258-1.848,2.945-1.848,4.748v0.037c0,1.82,0.654,3.508,1.843,4.752
		c1.199,1.255,2.846,1.946,4.632,1.946c1.926,0,3.399-0.606,4.929-2.028c0.101-0.101,0.155-0.221,0.155-0.346
		C13.541,28.611,13.311,28.381,13.059,28.381z"/>
	<g>
		<g>
			<path fill="#FFFFFF" d="M7,14.062c-0.271,0-0.5-0.229-0.5-0.5V1.925H2.463C2.212,1.925,2,1.713,2,1.462S2.212,1,2.463,1h9.074
				C11.788,1,12,1.212,12,1.462s-0.212,0.462-0.463,0.462H7.5v11.638C7.5,13.833,7.271,14.062,7,14.062z"/>
		</g>
		<g>
			<path fill="#FFFFFF" d="M14.731,14.222c-2.304,0-3.731-1.532-3.731-3.903V5.481C11,5.198,11.19,5,11.463,5
				c0.279,0,0.481,0.202,0.481,0.481v4.67c0,0.961,0.269,1.765,0.779,2.325c0.521,0.573,1.22,0.875,2.138,0.875
				c0.896,0,1.658-0.334,2.257-0.942c0.604-0.614,0.938-1.469,0.938-2.405V5.481c0-0.283,0.19-0.481,0.463-0.481
				C18.798,5,19,5.202,19,5.481v8.112c0,0.274-0.199,0.481-0.463,0.481c-0.279,0-0.481-0.203-0.481-0.481v-1.3
				C17.307,13.573,16.229,14.222,14.731,14.222z"/>
		</g>
	</g>
</g>
</svg>
