<?xml version="1.0" encoding="utf-8"?>
<!-- Generator: Adobe Illustrator 16.0.0, SVG Export Plug-In . SVG Version: 6.00 Build 0)  -->
<!DOCTYPE svg PUBLIC "-//W3C//DTD SVG 1.0//EN" "http://www.w3.org/TR/2001/REC-SVG-20010904/DTD/svg10.dtd">
<svg version="1.0" id="Layer_1" xmlns="http://www.w3.org/2000/svg" xmlns:xlink="http://www.w3.org/1999/xlink" x="0px" y="0px"
	 width="160px" height="38px" viewBox="0 0 160 38" enable-background="new 0 0 160 38" xml:space="preserve">
<g>
	<g>
		<g>
			<g>
				<path fill="#FFFFFF" d="M76.995,34.366v-0.008c0-1.049,0.781-1.902,1.895-1.902c0.677,0,1.085,0.234,1.438,0.57l-0.414,0.479
					c-0.294-0.27-0.609-0.455-1.027-0.455c-0.707,0-1.215,0.58-1.215,1.293v0.016c0,0.717,0.508,1.305,1.215,1.305
					c0.451,0,0.74-0.182,1.057-0.478l0.412,0.42c-0.387,0.401-0.803,0.651-1.491,0.651C77.792,36.257,76.995,35.424,76.995,34.366"
					/>
				<rect x="81.069" y="32.521" fill="#FFFFFF" width="0.643" height="3.674"/>
				<path fill="#FFFFFF" d="M82.638,34.636v-2.114h0.647v2.091c0,0.678,0.353,1.046,0.927,1.046c0.572,0,0.926-0.345,0.926-1.022
					v-2.114h0.648v2.082c0,1.098-0.623,1.649-1.58,1.649C83.247,36.253,82.638,35.701,82.638,34.636"/>
				<path fill="#FFFFFF" d="M86.667,32.521h1.379c1.151,0,1.949,0.788,1.949,1.825v0.012c0,1.031-0.798,1.837-1.949,1.837h-1.379
					V32.521z M88.046,35.605c0.771,0,1.273-0.519,1.273-1.239v-0.008c0-0.718-0.502-1.25-1.273-1.25h-0.728v2.497H88.046z"/>
				<path fill="#FFFFFF" d="M91.827,32.49h0.6l1.616,3.705H93.36l-0.373-0.888h-1.736l-0.376,0.888H90.21L91.827,32.49z
					 M92.754,34.733l-0.634-1.47l-0.631,1.47H92.754z"/>
				<path fill="#FFFFFF" d="M94.675,32.521h1.367c1.158,0,1.957,0.788,1.957,1.825v0.012c0,1.031-0.799,1.837-1.957,1.837h-1.367
					V32.521z M96.042,35.605c0.775,0,1.281-0.519,1.281-1.239v-0.008c0-0.718-0.506-1.25-1.281-1.25h-0.723v2.497H96.042z"/>
				<path fill="#FFFFFF" d="M100.356,32.521h1.371c1.151,0,1.955,0.788,1.955,1.825v0.012c0,1.031-0.804,1.837-1.955,1.837h-1.371
					V32.521z M101.728,35.605c0.775,0,1.277-0.519,1.277-1.239v-0.008c0-0.718-0.502-1.25-1.277-1.25h-0.727v2.497H101.728z"/>
				<polygon fill="#FFFFFF" points="104.464,32.521 107.187,32.521 107.187,33.098 105.108,33.098 105.108,34.054 106.95,34.054 
					106.95,34.634 105.108,34.634 105.108,35.618 107.216,35.618 107.216,36.195 104.464,36.195 				"/>
				<polygon fill="#FFFFFF" points="109.559,32.521 110.249,32.521 111.363,34.258 112.482,32.521 113.175,32.521 113.175,36.195 
					112.526,36.195 112.526,33.56 111.363,35.29 111.343,35.29 110.192,33.57 110.192,36.195 109.559,36.195 				"/>
				<path fill="#FFFFFF" d="M114.119,32.521h2.723v0.576h-2.081v0.956h1.844v0.574h-1.844v0.99h2.106v0.577h-2.748V32.521z
					 M115.657,31.352l0.573,0.261l-0.638,0.6h-0.494L115.657,31.352z"/>
				<polygon fill="#FFFFFF" points="118.698,34.326 117.41,32.521 118.173,32.521 119.08,33.837 120.002,32.521 120.743,32.521 
					119.46,34.315 120.798,36.195 120.036,36.195 119.067,34.804 118.097,36.195 117.357,36.195 				"/>
				<rect x="121.499" y="32.521" fill="#FFFFFF" width="0.648" height="3.674"/>
				<path fill="#FFFFFF" d="M122.967,34.366v-0.008c0-1.049,0.779-1.902,1.894-1.902c0.678,0,1.088,0.234,1.441,0.57l-0.412,0.479
					c-0.298-0.27-0.611-0.455-1.032-0.455c-0.704,0-1.212,0.58-1.212,1.293v0.016c0,0.717,0.508,1.305,1.212,1.305
					c0.452,0,0.738-0.182,1.053-0.478l0.413,0.42c-0.38,0.401-0.801,0.651-1.492,0.651
					C123.765,36.257,122.967,35.424,122.967,34.366"/>
				<path fill="#FFFFFF" d="M126.737,34.366v-0.008c0-1.037,0.801-1.902,1.928-1.902c1.125,0,1.92,0.854,1.92,1.887v0.016
					c0,1.035-0.803,1.898-1.931,1.898C127.52,36.257,126.737,35.399,126.737,34.366 M129.903,34.366v-0.008
					c0-0.716-0.521-1.309-1.249-1.309c-0.73,0-1.241,0.582-1.241,1.293v0.016c0,0.713,0.521,1.305,1.252,1.305
					C129.393,35.663,129.903,35.081,129.903,34.366"/>
			</g>
			<g>
				<path fill="#FFFFFF" d="M61.593,27.801c-3.559,0-6.835-1.379-9.226-3.878c-2.36-2.474-3.665-5.83-3.665-9.448v-0.071
					c0-7.514,5.695-13.397,12.963-13.397c4.596,0,7.343,1.649,10.053,4.131l0.168,0.16L70.22,7.009l-0.163-0.156
					c-3.353-3.246-6.144-3.686-8.427-3.686c-2.883,0-5.549,1.146-7.499,3.219c-1.938,2.076-3.008,4.893-3.008,7.945v0.072
					c0,6.299,4.63,11.231,10.542,11.231c3.305,0,5.799-1.131,8.608-3.899l0.158-0.156l1.602,1.554l-0.168,0.161
					C67.844,27.263,64.415,27.801,61.593,27.801"/>
				<path fill="#FFFFFF" d="M85.745,27.388h-8.719V1.413h8.719c7.992,0,13.789,5.433,13.789,12.918v0.072
					c0,3.576-1.363,6.857-3.842,9.234C93.17,26.056,89.64,27.388,85.745,27.388 M79.376,25.183h6.369
					c3.354,0,6.225-1.078,8.307-3.121c1.971-1.936,3.059-4.633,3.059-7.587v-0.071c0-2.949-1.088-5.65-3.059-7.615
					c-2.09-2.072-4.96-3.167-8.307-3.167h-6.369V25.183z"/>
				<polygon fill="#FFFFFF" points="104.582,1.397 110.749,1.397 117.579,12.396 124.419,1.397 130.586,1.397 130.586,27.407 
					124.902,27.407 124.902,10.425 117.579,21.536 117.437,21.536 110.19,10.536 110.19,27.407 104.582,27.407 				"/>
				<polygon fill="#FFFFFF" points="144.112,14.179 135.419,1.397 142.104,1.397 147.566,9.833 153.067,1.397 159.569,1.397 
					150.876,14.104 159.94,27.407 153.249,27.407 147.415,18.486 141.548,27.407 135.048,27.407 				"/>
			</g>
		</g>
		<g>
			<path fill="#FFFFFF" d="M27.312,11.216c0,0,0.001,0.013,0.004,0.033c-0.198-0.121-0.078,0.139,0.067,0.684
				c0.082,1.007,0.155,2.834-0.262,3.811c-0.492,1.149-1.131,2.543-2.516,3.964c-0.609,0.589-1.225,1.114-1.814,1.576
				c-0.138-0.193-0.23-0.416-0.398-0.59c-0.416-0.813-0.832-1.628-1.248-2.44c-0.249-0.521-0.488-1.051-0.945-1.438
				c-0.019-0.018-0.043-0.049-0.043-0.072c0.021-0.209-0.098-0.42,0.018-0.627c-0.038-0.115,0.008-0.262-0.088-0.351
				c-0.02-0.021-0.049-0.037-0.082-0.049c-0.037-0.013-0.055-0.054-0.032-0.091c0.015-0.027,0.034-0.037,0.056-0.037
				c0.02,0,0.039,0.008,0.057,0.021c0.061,0.043,0.125,0.064,0.191,0.068c0.008,0.001,0.018,0.001,0.027,0.001
				c0.03,0,0.059-0.001,0.091-0.011c0.04-0.196-0.209-0.232-0.213-0.424c0.163,0.043,0.276,0.182,0.427,0.24
				c0.002-0.143,0.045-0.234,0.165-0.234c0.03,0,0.063,0.006,0.104,0.02c0.023,0.006,0.049,0.01,0.074,0.01
				c0.039,0,0.084-0.009,0.123-0.014c0.168-0.027,0.281-0.131,0.324-0.289c0.048-0.174-0.162-0.101-0.209-0.193
				c-0.441-0.037-0.837-0.19-1.193-0.447c-0.054-0.005-0.111-0.009-0.164-0.012c-0.113-0.092-0.23-0.181-0.342-0.277
				c-0.064-0.055-0.102-0.14-0.189-0.14c-0.021,0-0.047,0.005-0.079,0.019c-0.005,0.004-0.013,0.004-0.019,0.004
				c-0.045,0-0.082-0.066-0.125-0.09c-0.033-0.086-0.065-0.172-0.1-0.258c-0.074,0.022-0.117,0.086-0.174,0.133
				c-0.014,0.049-0.028,0.094-0.043,0.137c-0.348,0.188-0.475,0.521-0.514,0.873c-0.023,0.206-0.087,0.291-0.245,0.291
				c-0.025,0-0.052-0.002-0.077-0.005c-0.016-0.003-0.033-0.004-0.05-0.004c-0.048,0-0.095,0.011-0.14,0.047
				c-0.174,0.148-0.402,0.185-0.604,0.285c-0.007,0.005-0.014,0.005-0.02,0.005c-0.025,0-0.029-0.043-0.036-0.073
				c-0.092,0.028-0.163,0.118-0.267,0.118c-0.01,0-0.016,0-0.023,0c-0.018-0.133,0.182-0.121,0.158-0.254
				c-0.049,0.025-0.097,0.047-0.148,0.068c-0.015-0.076,0.055-0.103,0.068-0.154c0.273-0.265,0.568-0.485,0.973-0.496
				c0.055-0.098,0.113-0.197,0.172-0.301c0.059-0.027,0.085-0.072,0.095-0.134c0.019-0.059,0.043-0.112,0.069-0.161
				c-0.019-0.116-0.069-0.223-0.176-0.306c-0.008-0.006-0.016-0.017-0.021-0.029c-0.036-0.013-0.07-0.026-0.104-0.04
				c-0.072-0.017-0.122-0.043-0.051-0.12c0.029,0.011,0.062,0.022,0.094,0.034c-0.012-0.04-0.023-0.079-0.053-0.111
				c-0.096-0.074-0.186-0.164-0.314-0.164c-0.012,0-0.024,0-0.035,0.002c-0.006,0.002-0.012,0.004-0.018,0.01
				c-0.068-0.178-0.178-0.33-0.32-0.441c-0.025-0.018-0.048-0.026-0.072-0.026c-0.088,0-0.179,0.09-0.275,0.097
				c-0.035,0-0.072,0.012-0.109,0.019c-0.011-0.004-0.024-0.009-0.037-0.013c-0.102,0.003-0.203,0.006-0.303,0.009
				c0.033-0.091,0.09-0.141,0.172-0.141c0.023,0,0.051,0.004,0.079,0.014c0.009,0.019,0.018,0.034,0.023,0.052
				c0.013,0.002,0.024,0.002,0.036,0.002c0.009,0.004,0.02,0.004,0.028,0.004c0.036,0,0.069-0.008,0.095-0.026
				c0.125-0.093,0.262-0.128,0.408-0.128c0.049,0,0.103,0.004,0.155,0.012c0.034,0.005,0.066,0.007,0.103,0.007
				c0.061,0,0.123-0.009,0.18-0.032c0.107-0.047,0.18-0.133,0.15-0.263c-0.025-0.103-0.088-0.158-0.186-0.158
				c-0.02,0-0.041,0.001-0.062,0.007c-0.043,0.006-0.081,0.015-0.119,0.015c-0.024,0-0.05-0.002-0.071-0.009
				c0.076-0.1,0.117-0.213,0.071-0.361c-0.017-0.059-0.006-0.135,0.017-0.194c0.037-0.101-0.002-0.144-0.094-0.183
				c-0.203-0.091-0.399-0.51-0.293-0.686c0.057-0.094,0.242-0.097,0.242-0.281c0-0.008,0.027-0.012,0.067-0.012
				c0.055,0,0.137,0.01,0.2,0.04c0.01,0.005,0.02,0.011,0.029,0.014c0.013,0.009,0.027,0.021,0.037,0.028
				c0.072,0.083,0.189,0.182,0.117,0.307c-0.077,0.135-0.023,0.186,0.086,0.23c0.146,0.055,0.105,0.123,0.012,0.184
				c-0.189,0.126-0.119,0.218,0.026,0.311c-0.026,0.174-0.023,0.338,0.078,0.469c0.035,0.039,0.071,0.072,0.125,0.106
				c-0.037-0.101-0.073-0.2-0.114-0.308c0.139,0.043,0.252,0.064,0.348,0.064c0.194,0,0.301-0.094,0.344-0.289
				c-0.143-0.092-0.21-0.191-0.11-0.367c0.054-0.095-0.03-0.173-0.067-0.262c-0.01-0.025-0.018-0.057-0.015-0.086
				c0.029-0.217-0.001-0.415-0.169-0.568c-0.049-0.1-0.135-0.158-0.217-0.221c-0.146-0.094-0.324-0.12-0.48-0.187
				c-0.08-0.074-0.164-0.099-0.246-0.099c-0.135,0-0.269,0.066-0.383,0.106c-0.084,0.03-0.213,0.066-0.288,0.158
				c-0.048,0.06-0.069,0.142-0.034,0.266c0.068-0.055,0.146-0.079,0.219-0.079c0.098,0,0.18,0.043,0.195,0.098
				c0.054,0.169-0.162,0.242-0.344,0.314c0.15,0.047,0.266,0.129,0.246,0.231c-0.035,0.175,0.006,0.378-0.162,0.514
				c0,0.015,0,0.032,0,0.048c-0.176,0.126-0.104,0.309-0.093,0.465c0.016,0.265-0.052,0.391-0.279,0.463
				c-0.171-0.096-0.398,0.011-0.548-0.128c-0.154-0.147-0.381-0.2-0.502-0.388c-0.104-0.179-0.257-0.303-0.42-0.418
				c-0.095-0.07-0.212-0.113-0.276-0.217c-0.198-0.339-0.393-0.678-0.589-1.017c-0.072-0.104-0.141-0.206-0.216-0.311
				c-0.009,0.144,0.062,0.242,0.122,0.351c0.183,0.348,0.406,0.68,0.539,1.057c-0.026,0-0.054,0-0.077,0
				c-0.316-0.244-0.374-0.668-0.655-0.949c-0.131-0.134-0.176-0.349-0.246-0.545c-0.009-0.033-0.021-0.068-0.035-0.098
				c0.015-0.045,0.034-0.086,0.048-0.131c0.09-0.004,0.134-0.055,0.126-0.143c-0.004-0.086,0.03-0.157,0.089-0.218
				c0.064-0.127,0.113-0.262,0.193-0.384c0.129-0.195,0.02-0.428-0.204-0.511c-0.039-0.013-0.061-0.038-0.069-0.076
				c0.056-0.05,0.154-0.079,0.09-0.189c-0.015-0.028-0.032-0.056-0.047-0.083c-0.022,0-0.043,0.001-0.064,0.001
				c-0.162,0-0.31-0.044-0.465-0.104c-0.152-0.059-0.316-0.152-0.476-0.152c-0.117,0-0.23,0.052-0.334,0.207
				c-0.015,0.046-0.032,0.094-0.047,0.143c0.139,0.179,0.311,0.27,0.538,0.27c0.009,0,0.018,0,0.028,0h0.001
				c0.142,0,0.312,0.285,0.334,0.529c-0.039,0.049-0.087,0.061-0.135,0.061c-0.041,0-0.081-0.01-0.119-0.01
				c-0.039,0-0.076,0.01-0.107,0.034c-0.029,0.058-0.05,0.124-0.127,0.14c-0.028,0-0.062,0.002-0.091,0.002
				c-0.066,0.024-0.08,0.068-0.049,0.128c-0.017,0.001-0.031,0.003-0.046,0.003c-0.142,0-0.249-0.094-0.299-0.199
				c-0.035-0.076-0.029-0.229,0.092-0.314c0.088-0.066,0.051-0.162,0.013-0.24c-0.054-0.117-0.077-0.236-0.063-0.364
				c-0.177,0.009-0.312,0.144-0.494,0.154c-0.105,0.007-0.147,0.128-0.079,0.226c0.123,0.174,0.094,0.364,0.084,0.556
				c-0.146,0.138-0.039,0.267,0.059,0.329c0.165,0.105,0.285,0.274,0.475,0.338c0.094,0,0.184,0.051,0.279,0.051
				c0.042,0,0.083-0.01,0.128-0.039c0.054-0.033,0.11-0.068,0.165-0.1c0.165,0.051,0.235,0.166,0.279,0.299
				c0.027,0.073,0.044,0.155,0.067,0.232c-0.01,0.199,0.072,0.35,0.215,0.414c-0.066-0.008-0.126-0.035-0.187-0.076
				c-0.215-0.146-0.448-0.234-0.699-0.285c-0.024-0.006-0.049-0.012-0.072-0.02c-0.399-0.104-0.77-0.285-1.166-0.379
				c-0.503-0.115-0.955-0.33-1.416-0.557C9.867,9.284,9.72,9.208,9.561,9.208c-0.043,0-0.085,0.006-0.13,0.02
				C9.402,9.213,9.375,9.202,9.353,9.202c-0.039,0-0.067,0.021-0.082,0.071C9.209,9.466,9.2,9.667,9.226,9.865
				c0.004,0.03,0.041,0.079,0.062,0.08c0.381,0.039,0.414,0.312,0.363,0.593c-0.078,0.424,0.065,0.682,0.486,0.777
				c0.043,0.07,0.068,0.148,0.095,0.227c-0.568,0.375-1.087,0.779-1.496,1.182c-2.171,2.142-3.716,5.94-1.977,9.58
				c1.473,3.074,4.958,5.54,4.958,5.54s1.953-0.996,2.265-1.173c0.313-0.178,0.208-0.32,0.773-0.675
				c0.232-0.144,0.421-0.228,0.565-0.277c-0.132,0.16-0.292,0.348-0.485,0.565c-0.624,0.703-2.174,1.443-2.174,1.443l0.332,0.286
				c-0.324,0.179-0.558,0.29-0.558,0.29l0.546,0.471c0,0,0.782-0.077,1.118-0.117c0.33-0.039,1.092-0.668,1.427-0.865
				c0.11-0.064,0.219-0.08,0.314-0.074c-0.113,0.109-0.229,0.22-0.325,0.296c-0.282,0.228-1.249,0.799-1.249,0.799
				s0.279,0.085,0.606,0.138c-0.37,0.234-0.774,0.473-0.774,0.473s0.957,0.297,1.427,0.14c0.468-0.157,1.213-0.865,1.508-1.003
				c0.027-0.013,0.053-0.019,0.076-0.025l-1.046,0.982c0,0,0.278-0.016,0.626-0.049l-0.732,0.684c0,0,1.113-0.059,1.7-0.215
				c0.589-0.157,1.37-0.789,1.37-0.789v-0.6c0-0.001,0.002-0.002,0.002-0.002v0.602c0,0,0.783,0.632,1.371,0.789
				c0.586,0.156,1.701,0.215,1.701,0.215l-0.732-0.684c0.35,0.033,0.63,0.049,0.63,0.049l-1.046-0.98
				c0.025,0.007,0.048,0.011,0.073,0.023c0.293,0.138,1.037,0.846,1.507,1.003c0.469,0.157,1.428-0.14,1.428-0.14
				s-0.406-0.238-0.775-0.473c0.328-0.051,0.609-0.138,0.609-0.138s-0.963-0.571-1.248-0.799c-0.095-0.076-0.211-0.187-0.324-0.296
				c0.095-0.006,0.201,0.01,0.311,0.074c0.334,0.197,1.096,0.826,1.428,0.865c0.332,0.04,1.115,0.117,1.115,0.117l0.549-0.471
				c0,0-0.232-0.109-0.557-0.289l0.334-0.287c0,0-1.551-0.74-2.176-1.443c-0.193-0.217-0.352-0.403-0.483-0.564
				c0.144,0.051,0.331,0.134,0.562,0.276c0.566,0.354,0.463,0.497,0.775,0.675c0.312,0.177,2.26,1.173,2.26,1.173
				s3.49-2.466,4.961-5.54c1.743-3.64,0.195-7.438-1.979-9.58C28.798,12.203,28.081,11.678,27.312,11.216z M16.938,11.543
				c0.126,0.02,0.195,0.097,0.232,0.216c-0.02,0-0.037,0.002-0.051,0.002C16.99,11.761,16.895,11.729,16.938,11.543z M12.771,9.577
				c-0.026,0.014-0.046,0.033-0.071,0.047c-0.061,0.022-0.12,0.049-0.2,0.082c0.014-0.176,0.125-0.242,0.245-0.303
				c0.011,0.006,0.022,0.008,0.036,0.008c0.051,0,0.112-0.042,0.156-0.042c0.025,0,0.043,0.013,0.05,0.051
				C13.017,9.53,12.853,9.534,12.771,9.577z M16.708,17.668c0-0.001,0-0.001,0.001-0.002c0.294,0.634,0.642,1.188,1.07,1.698
				C17.352,18.856,17.003,18.302,16.708,17.668z M17.228,19.054c-0.184-0.33-0.368-0.659-0.486-1.024
				C16.862,18.395,17.044,18.724,17.228,19.054z M17.812,19.452c0.006,0.029,0.004,0.061-0.008,0.092
				C17.815,19.513,17.815,19.481,17.812,19.452z M19.876,15.879c-0.027,0.009-0.059,0.013-0.086,0.013
				C19.816,15.892,19.845,15.886,19.876,15.879L19.876,15.879z M20.353,18.3c-0.146-0.148-0.296-0.301-0.443-0.445
				c-0.045-0.034-0.086-0.064-0.131-0.097c0.045,0.032,0.086,0.062,0.131,0.095c0.146,0.148,0.295,0.295,0.442,0.445
				C20.353,18.298,20.353,18.299,20.353,18.3z M20.821,22.676c-0.001,0-0.002,0.001-0.003,0.001
				c0.045-0.143,0.069-0.285-0.028-0.424c-0.024-0.037-0.043-0.075-0.066-0.113c0.023,0.037,0.042,0.076,0.066,0.111
				C20.888,22.39,20.863,22.533,20.821,22.676z M19.028,18.561c-0.014-0.03-0.028-0.062-0.043-0.093
				c0.015,0.03,0.029,0.062,0.045,0.09c0.381,0.568,0.921,0.938,1.467,1.301C19.95,19.495,19.411,19.126,19.028,18.561z
				 M18.797,16.549c0.2,0.101,0.348,0.173,0.495,0.245c-0.002-0.032-0.002-0.066-0.002-0.1c-0.139-0.029-0.264-0.119-0.46-0.141
				c0.198,0.021,0.319,0.111,0.461,0.141c0,0.035,0,0.068,0.001,0.1c-0.148-0.07-0.294-0.146-0.497-0.245
				C18.796,16.549,18.796,16.549,18.797,16.549z M20.069,18.603c-0.168-0.104-0.354-0.174-0.543-0.241
				C19.716,18.429,19.901,18.499,20.069,18.603z M19.452,17.76c-0.005,0-0.01-0.003-0.014-0.004
				c0.006,0.001,0.011,0.002,0.016,0.002c0.054,0,0.117-0.019,0.176-0.024C19.573,17.739,19.508,17.76,19.452,17.76z M19.382,17.737
				c0.002,0.002,0.006,0.004,0.008,0.006C19.388,17.741,19.384,17.739,19.382,17.737z M19.403,17.146
				c-0.012-0.07-0.019-0.141-0.016-0.213C19.385,17.005,19.392,17.075,19.403,17.146z M19.435,17.325
				c-0.039,0.118-0.129,0.246-0.1,0.341C19.308,17.573,19.392,17.444,19.435,17.325z M19.162,18.222
				c-0.06-0.023-0.138-0.07-0.201-0.07C19.024,18.151,19.104,18.198,19.162,18.222z M18.912,18.164c0.001,0,0.003-0.003,0.004-0.003
				C18.915,18.161,18.913,18.164,18.912,18.164z M19.815,17.333c-0.104-0.117-0.248-0.201-0.275-0.385
				c0.027,0.184,0.172,0.266,0.277,0.385c0.037,0.043,0.07,0.088,0.1,0.133C19.888,17.421,19.854,17.376,19.815,17.333z
				 M18.543,15.679c0.011-0.004,0.015-0.014,0.017-0.025C18.558,15.665,18.554,15.674,18.543,15.679
				C18.544,15.679,18.544,15.679,18.543,15.679z M18.562,15.652c0.002-0.013,0.001-0.026,0.002-0.041
				C18.563,15.626,18.563,15.64,18.562,15.652z M18.004,16.698c-0.176,0.036-0.165,0.173-0.176,0.306
				C17.839,16.87,17.828,16.734,18.004,16.698z M17.964,19.183c0.011-0.019,0.021-0.039,0.031-0.059
				c-0.01,0.02-0.02,0.041-0.03,0.062C17.965,19.185,17.964,19.185,17.964,19.183z M18.228,19.812
				c-0.023,0.02-0.041,0.027-0.055,0.027l0,0C18.188,19.839,18.206,19.831,18.228,19.812z M18.011,19.095c0,0,0.002,0,0.002-0.002
				c0.09,0.121,0.141,0.26,0.181,0.404C18.153,19.353,18.104,19.214,18.011,19.095z M18.024,19.632
				c-0.021-0.032-0.051-0.062-0.098-0.084c0.04,0.171,0.072,0.327,0.107,0.483c-0.035-0.156-0.069-0.312-0.107-0.483
				C17.974,19.569,18.003,19.6,18.024,19.632z M18.058,20.163c0.055,0.122,0.11,0.242,0.168,0.362
				c0.035,0.035,0.058,0.087,0.101,0.12c-0.043-0.033-0.065-0.084-0.103-0.12C18.168,20.405,18.112,20.285,18.058,20.163
				c-0.003-0.013-0.004-0.025-0.006-0.039C18.054,20.138,18.056,20.15,18.058,20.163z M18.101,17.32
				c0.104-0.153,0.242-0.18,0.391-0.184C18.344,17.141,18.204,17.169,18.101,17.32z M18.442,16.925
				c-0.098-0.086-0.229-0.092-0.335-0.144C18.213,16.833,18.345,16.837,18.442,16.925c0.112,0.1,0.305,0.068,0.459,0.193
				C18.747,16.993,18.555,17.026,18.442,16.925z M18.53,17.135c-0.002,0-0.002,0-0.004,0c0,0,0,0,0.001,0
				S18.528,17.135,18.53,17.135z M19.418,20.121c0.247,0.284,0.427,0.61,0.63,0.925C19.845,20.731,19.663,20.405,19.418,20.121
				c-0.166-0.288-0.329-0.573-0.495-0.858C19.087,19.548,19.252,19.833,19.418,20.121z M19.378,20.163
				c0.062,0.168,0.143,0.326,0.23,0.479c-0.088-0.153-0.168-0.311-0.23-0.478c-0.023-0.039-0.049-0.078-0.072-0.117
				C19.329,20.087,19.353,20.124,19.378,20.163z M19.789,22.608c-0.063-0.106-0.134-0.21-0.222-0.303
				C19.655,22.399,19.726,22.502,19.789,22.608z M19.762,23.312l0.169-0.096C19.871,23.249,19.815,23.281,19.762,23.312z
				 M22.457,21.54C22.456,21.54,22.456,21.54,22.457,21.54c-0.042-0.09-0.087-0.184-0.142-0.304
				C22.37,21.354,22.415,21.45,22.457,21.54z M22.291,21.665L22.291,21.665c-0.022-0.071-0.077-0.107-0.155-0.119
				C22.214,21.558,22.269,21.593,22.291,21.665z M21.898,21.241c-0.051-0.051-0.114-0.088-0.177-0.127
				c-0.203-0.127-0.412-0.25-0.619-0.371c-0.158,0.045-0.319,0.092-0.48,0.139c0.003,0.074,0.051,0.123,0.088,0.178
				c0.133,0.212,0.209,0.424,0.062,0.666c-0.029,0.045-0.021,0.114-0.029,0.174c-0.154-0.414-0.324-0.816-0.605-1.16
				c0-0.001,0-0.002-0.001-0.003c0.282,0.345,0.451,0.749,0.606,1.161c0.008-0.058,0-0.127,0.027-0.172
				c0.148-0.24,0.072-0.454-0.061-0.666c-0.037-0.055-0.086-0.102-0.088-0.178c0.161-0.047,0.32-0.096,0.48-0.142
				c0.207,0.124,0.416,0.247,0.619,0.374C21.784,21.152,21.848,21.19,21.898,21.241z M18.296,15.062c-0.02,0-0.04,0-0.057,0.003
				c0-0.001-0.001-0.001-0.002-0.002C18.258,15.062,18.276,15.062,18.296,15.062z M18.378,15.155
				c-0.025-0.011-0.056-0.018-0.083-0.031C18.323,15.138,18.353,15.145,18.378,15.155z M17.851,15.589
				c0.029,0,0.057,0.002,0.088,0.01c0.177,0.046,0.356,0.066,0.539,0.075c-0.183-0.009-0.363-0.029-0.539-0.072
				C17.907,15.592,17.879,15.59,17.851,15.589c-0.102,0.001-0.188,0.052-0.279,0.164H17.57
				C17.661,15.642,17.749,15.589,17.851,15.589z M16.376,12.877c0.01,0.147-0.041,0.274-0.121,0.392
				c-0.048,0.07-0.064,0.149-0.064,0.23C16.015,13.163,16.062,12.999,16.376,12.877z M15.264,13.181c0-0.043,0-0.084,0-0.127
				c0.211,0.121,0.442,0.219,0.565,0.452c-0.022,0.013-0.049,0.021-0.075,0.032c-0.027,0.265-0.252,0.318-0.439,0.414
				c-0.028,0.02-0.057,0.041-0.09,0.057c-0.032,0.016-0.062,0.045-0.094,0.045c-0.013,0-0.026-0.004-0.042-0.018
				c-0.046-0.045,0.003-0.096,0.021-0.142c0.017-0.047,0.039-0.091,0.064-0.136c0.016-0.116,0.063-0.23,0.046-0.352
				c-0.092-0.103-0.304,0.029-0.35-0.174C15.002,13.217,15.133,13.196,15.264,13.181z M15.404,14.142
				c-0.016-0.053,0.011-0.098,0.075-0.098h0.012c0.084,0.007,0.33,0.307,0.289,0.334c-0.234,0.149-0.124,0.528-0.466,0.642
				C15.396,14.707,15.497,14.433,15.404,14.142z M14.163,12.694c0.018,0.029-0.047,0.125,0.011,0.125
				c0.013,0,0.032-0.004,0.058-0.018c0.019-0.004,0.034-0.01,0.047-0.01c0.084,0,0.125,0.094,0.209,0.094
				c0.05,0,0.036,0.088-0.015,0.117c-0.073,0.047-0.153,0.086-0.23,0.127c-0.18,0.008-0.342,0.072-0.481,0.188
				c-0.097,0.008-0.182,0.07-0.296,0.07c-0.019,0-0.039-0.002-0.06-0.006c0.208-0.219-0.021-0.222-0.127-0.289
				c-0.013-0.066,0.006-0.119,0.065-0.146c0.232-0.098,0.444-0.264,0.704-0.264C14.086,12.683,14.124,12.685,14.163,12.694z
				 M13.943,11.851h-0.001c0,0-0.001-0.002-0.001-0.004L13.943,11.851z M13.716,8.593h0.001c0.055,0,0.074,0.038,0.076,0.085
				c-0.005,0.042-0.026,0.073-0.069,0.073c-0.052,0-0.077-0.037-0.077-0.088C13.65,8.622,13.675,8.594,13.716,8.593z M13.45,9.097
				c-0.012-0.031-0.027-0.062-0.04-0.092h0.067c0.064,0.001,0.133,0.006,0.172,0.072c0.016,0.027,0.008,0.064-0.021,0.077
				c-0.014,0.007-0.028,0.009-0.041,0.009C13.538,9.163,13.498,9.114,13.45,9.097z M10.709,10.368
				c0.013,0.002,0.038,0.008,0.055,0.008c0.019,0,0.034-0.008,0.024-0.029c-0.04-0.085-0.025-0.105,0.004-0.105
				c0.028,0,0.07,0.021,0.087,0.023c0.273,0.035,0.535,0.119,0.839,0.214c-0.075-0.087-0.118-0.136-0.16-0.183
				c0.571,0.129,1.174,0.172,1.637,0.616c-0.226-0.079-0.441-0.201-0.676-0.201c-0.063,0-0.124,0.008-0.188,0.028
				c0.158,0.156,0.458,0.173,0.551,0.44c0,0.06-0.021,0.073-0.049,0.073c-0.023,0-0.051-0.008-0.076-0.008
				c-0.056-0.002-0.112-0.01-0.164-0.023c-0.051,0.028-0.106,0.051-0.147,0.092c-0.109-0.146-0.287-0.231-0.385-0.385
				c-0.018-0.017-0.039-0.031-0.058-0.047c-0.583-0.02-1.135-0.146-1.623-0.492c-0.012-0.008-0.014-0.036-0.02-0.057
				C10.475,10.347,10.593,10.358,10.709,10.368z M10.685,11.121c-0.193-0.149-0.461-0.185-0.643-0.405
				c0.039-0.008,0.079-0.012,0.114-0.012c0.104,0,0.199,0.025,0.287,0.059c0.537,0.196,1.091,0.355,1.64,0.508
				c0.089,0.024,0.197,0.02,0.182,0.189c-0.005,0.067,0.054,0.077,0.118,0.077c0.024,0,0.051-0.002,0.071-0.002
				c0.01,0,0.02,0,0.03,0c0.092,0.063,0.219,0.052,0.303,0.14c0.011,0.035,0.011,0.061,0.009,0.084
				c0.187,0.084,0.389,0.104,0.589,0.134c0.062-0.05,0.139-0.085,0.243-0.085h0.008h0.006c0.046,0,0.09-0.004,0.133-0.004
				c0.056,0,0.11,0.009,0.163,0.045c-0.014,0.072-0.047,0.125-0.124,0.142c0.02,0.073,0.135,0.106,0.097,0.196
				c-0.02,0.045-0.054,0.055-0.093,0.055c-0.025,0-0.051-0.002-0.077-0.002c-0.023,0-0.043,0.002-0.062,0.012
				c-0.048,0.091-0.079,0.17,0.009,0.17c0.022,0,0.053-0.006,0.092-0.018c0.028-0.009,0.057-0.016,0.084-0.016
				c0.034,0,0.066,0.012,0.09,0.053c0.049,0.077-0.016,0.117-0.056,0.168c-0.139,0.049-0.277,0.093-0.413,0.15
				c-0.121,0.049-0.243,0.071-0.365,0.071c-0.156,0-0.311-0.038-0.461-0.097c-0.017-0.01-0.034-0.01-0.051-0.01
				c-0.041,0-0.073,0.019-0.108,0.019c-0.005,0-0.011,0-0.017-0.002c-0.012,0.002-0.023,0.002-0.036,0.002
				c-0.173,0-0.312-0.118-0.488-0.151c0.368-0.188,0.772-0.208,1.145-0.337c0.002-0.005,0.006-0.009,0.009-0.015
				c-0.001-0.008-0.003-0.014-0.003-0.023c-0.11-0.103-0.259-0.092-0.391-0.119c-0.077-0.012-0.146-0.033-0.203-0.073
				c-0.041,0.007-0.083,0-0.121,0.009c-0.203,0.047-0.422-0.02-0.606,0.123c-0.012,0.014-0.03,0.014-0.051,0.014
				c-0.039,0-0.083-0.011-0.122-0.017c-0.219-0.036-0.57-0.34-0.664-0.586c0.256,0.052,0.462,0.237,0.714,0.237
				c0.022,0,0.045,0,0.069-0.003c0.026,0.001,0.056,0.003,0.086,0.006c0.035-0.036,0.079-0.048,0.132-0.048
				c0.016,0,0.036,0,0.056,0.002c0.081,0.007,0.163,0.026,0.245,0.026c0.061,0,0.12-0.009,0.175-0.041
				c0.007-0.007,0.012-0.015,0.015-0.024c-0.002-0.003-0.002-0.004-0.004-0.007c-0.151-0.06-0.305-0.112-0.424-0.229
				c-0.049-0.047-0.106-0.049-0.164-0.049h-0.038c-0.01,0-0.018,0-0.026-0.001c-0.342-0.015-0.677-0.058-0.975-0.236
				c0.001-0.009,0.002-0.022,0.002-0.022c-0.006,0.004-0.012,0.008-0.019,0.014C10.759,11.166,10.721,11.149,10.685,11.121z
				 M13.418,19.665c-1.355-1.406-1.987-2.785-2.477-3.922c-0.386-0.896-0.336-2.467-0.246-3.514
				c0.086,0.031,0.174,0.062,0.266,0.062c0.05,0,0.098-0.01,0.152-0.03c0.016-0.005,0.032-0.008,0.047-0.008
				c0.05,0,0.097,0.028,0.131,0.069c0.209,0.24,0.552,0.316,0.712,0.614c0.046,0.083,0.157,0.108,0.255,0.115
				c0.045,0.034,0.096,0.042,0.149,0.042c0.022,0,0.047-0.002,0.076-0.002c0.102,0.004,0.195,0.007,0.229,0.146
				c0.069,0.285,0.283,0.441,0.543,0.52c0.142,0.044,0.257,0.098,0.338,0.222c0.09,0.106,0.196,0.139,0.304,0.139
				c0.103,0,0.207-0.03,0.31-0.056c0.187-0.046,0.369-0.121,0.564-0.188c-0.011,0.169-0.104,0.224-0.217,0.249
				c-0.161,0.039-0.242,0.129-0.21,0.3c0.071,0.065,0.144,0.124,0.18,0.216c0.03,0.01,0.059,0.014,0.086,0.014
				c0.095,0,0.168-0.054,0.232-0.136c-0.052-0.012-0.103-0.024-0.155-0.036c-0.111-0.037-0.215-0.12-0.182-0.229
				c0.042-0.127,0.202-0.088,0.311-0.116c0.017,0.103,0.242,0.126,0.111,0.289c0.039-0.019,0.079-0.036,0.121-0.057
				c0.052-0.022,0.094-0.037,0.126-0.037c0.062,0,0.087,0.05,0.065,0.175c-0.042,0.27-0.069,0.538-0.103,0.806
				c0.023,0.007,0.05,0.01,0.07,0.01c0.095,0,0.173-0.05,0.246-0.122c0.017-0.018,0.034-0.039,0.049-0.059
				c0.109-0.127,0.187-0.273,0.278-0.41c0.04-0.062,0.054-0.154,0.172-0.154h0.008c-0.034,0.2-0.064,0.401-0.07,0.602
				c-0.002,0.164,0.01,0.328,0.049,0.49c0.045,0.061,0.008,0.122-0.005,0.183c-0.045,0.083-0.1,0.162-0.13,0.251
				c-0.122,0.394-0.199,0.783,0.126,1.126c0.088-0.153,0.02-0.336,0.095-0.49c0.004-0.461,0.462-1.037,0.881-1.107
				c-0.078,0.139-0.192,0.243-0.293,0.357c-0.099,0.112-0.19,0.229-0.269,0.354c-0.073,0.119-0.159,0.25-0.146,0.462
				c0.217-0.22,0.383-0.413,0.658-0.432c0.042,0.126-0.121,0.127-0.131,0.226c0.066,0.012,0.131,0.016,0.199,0.016
				c0.109,0,0.221-0.018,0.331-0.068c-0.11,0.165-0.286,0.27-0.357,0.471c0.058-0.004,0.114-0.005,0.169-0.005
				c0.1,0,0.195,0.009,0.283,0.044c0.064,0.026,0.164,0.046,0.152,0.139c-0.006,0.077-0.098,0.07-0.16,0.087
				c-0.029-0.005-0.058-0.01-0.087-0.01c-0.073,0-0.146,0.021-0.218,0.052c0.03,0.267,0.256,0.427,0.353,0.658
				c-0.357-0.107-0.435-0.215-0.448-0.625c-0.201,0.066-0.337,0.233-0.508,0.345c-0.064,0.038-0.061,0.113-0.061,0.179
				c-0.008,0.468,0.043,0.916,0.338,1.303c0.145,0.196,0.251,0.417,0.324,0.65c0.224,0.725,0.551,1.4,0.887,2.074
				c0.094,0.188,0.224,0.299,0.421,0.299c0.023,0,0.044-0.002,0.069-0.004c0.072,0.026,0.147,0.057,0.227,0.074
				c0.217,0.05,0.396,0.062,0.562,0.312c0.167,0.247,0.262,0.554,0.482,0.766c-0.406,0.227-0.652,0.344-0.652,0.344
				S16.144,22.316,13.418,19.665z"/>
			<path fill="#FFFFFF" d="M18.367,12.531c-0.007,0.006-0.017,0.01-0.024,0.015c0.062,0.041,0.066,0.115,0.068,0.197
				c-0.044-0.016-0.084-0.02-0.123-0.02c-0.051,0-0.095,0.013-0.135,0.031c-0.042,0.07-0.099,0.133-0.168,0.184
				c0.041,0.031,0.075,0.059,0.105,0.082c0.012,0.009,0.024,0.02,0.035,0.029c0.016,0.012,0.03,0.025,0.042,0.039
				c0.097,0.099,0.133,0.203,0.15,0.262v0.01c0.026-0.019,0.056-0.033,0.083-0.051c0.11-0.146,0.25-0.227,0.421-0.227
				c0.036,0,0.073,0.004,0.113,0.012c0.014-0.034,0.036-0.045,0.065-0.045c0.007,0,0.014,0,0.023,0
				c0.044-0.004,0.089-0.004,0.134-0.004c0.177,0,0.342,0.03,0.497,0.135c0.062,0.037,0.127,0.062,0.031,0.137
				c0.037,0.104,0.146,0.217-0.023,0.296c0.043,0.036,0.074,0.072,0.098,0.096c0.002,0.007,0.007,0.013,0.012,0.017
				c0.062,0.053,0.127,0.105,0.189,0.157c0.011,0.007,0.02,0.015,0.03,0.022c0.008,0,0.017,0,0.028,0.003
				c0.081,0.003,0.161,0.03,0.225,0.079c0.019,0.012,0.032,0.021,0.049,0.032c0.021,0.005,0.041,0.007,0.064,0.012
				c0.16,0.032,0.323,0.061,0.484,0.088c0.084-0.028,0.172-0.062,0.258-0.095c0.086-0.018,0.172-0.037,0.26-0.051
				c0.03-0.004,0.07-0.016,0.104-0.016c0.032,0,0.06,0.01,0.075,0.045c0.035,0.082-0.056,0.125-0.112,0.163
				c-0.117,0.077-0.236,0.134-0.363,0.172c0.055,0.009,0.108,0.015,0.162,0.021c0.078,0.008,0.148,0.035,0.209,0.077
				c0.037,0.009,0.088,0.027,0.14,0.056c0.188-0.106,0.38-0.213,0.52-0.389c0.058-0.072,0.127-0.16,0.067-0.262
				c-0.053-0.091-0.152-0.109-0.248-0.121c-0.014-0.004-0.026-0.004-0.039-0.004c-0.068,0-0.129,0.021-0.191,0.062
				c-0.096,0.061-0.162,0.094-0.213,0.094c-0.074,0-0.109-0.077-0.146-0.25c-0.006-0.082-0.014-0.157,0.066-0.157
				c0.019,0,0.047,0.004,0.078,0.015c0.031,0.012,0.061,0.016,0.087,0.016c0.106,0,0.158-0.092,0.157-0.205
				c-0.005-0.143,0.037-0.189,0.131-0.189c0.027,0,0.057,0.004,0.09,0.012c0.027,0.003,0.057,0.005,0.08,0.005
				c0.168,0,0.253-0.107,0.238-0.29c-0.268-0.018-0.535-0.025-0.8-0.084c0.062-0.01,0.126,0.002,0.18-0.044
				c-0.175-0.024-0.352-0.046-0.528-0.065c-0.178-0.018-0.285-0.088-0.225-0.289c0.036-0.049,0.086-0.088,0.146-0.088
				c0.096-0.003,0.192-0.006,0.29-0.006c0.375,0,0.747,0.033,1.115,0.131c0.032,0,0.064,0.002,0.097,0.002
				c0.074,0,0.146-0.009,0.194-0.064c0.089-0.1,0.196-0.158,0.313-0.191c0.078-0.025,0.158-0.039,0.242-0.049
				c0.099-0.006,0.197-0.015,0.298-0.015c0.025,0,0.051,0.002,0.077,0.003c0.021,0.002,0.044,0.002,0.063,0.002
				c0.357,0,0.604-0.205,0.806-0.487c-0.023-0.024-0.046-0.036-0.072-0.036c-0.035,0-0.071,0.018-0.107,0.025
				c-0.369,0.074-0.735,0.168-1.111,0.186c-0.285,0.061-0.574,0.061-0.863,0.07c0.159-0.109,0.341-0.146,0.52-0.191
				c0.539-0.127,1.092-0.202,1.623-0.365c-0.045-0.248,0.139-0.377,0.276-0.529c-0.043-0.006-0.085-0.008-0.126-0.008
				c-0.252,0-0.484,0.094-0.715,0.193c-0.076,0.032-0.152,0.055-0.229,0.084c-0.089-0.01-0.178-0.014-0.266-0.014
				c-0.659,0-1.286,0.199-1.922,0.361c0.272-0.117,0.545-0.232,0.814-0.348c0.964-0.102,1.866-0.435,2.776-0.728
				c0.009-0.063,0.034-0.103,0.07-0.134c0.069-0.054,0.179-0.062,0.248-0.122c0.103-0.076,0.203-0.151,0.305-0.227
				c0.062-0.024,0.137-0.022,0.183-0.087c0.071-0.211,0.062-0.288-0.072-0.288c-0.04,0-0.094,0.007-0.161,0.021
				c-0.024,0.006-0.058,0.015-0.081,0.015c-0.011,0-0.017-0.003-0.023-0.006c-0.068-0.054-0.132-0.075-0.191-0.075
				c-0.15,0-0.279,0.128-0.419,0.176c-0.073,0.027-0.13,0.096-0.196,0.141c-0.027,0.02-0.055,0.029-0.076,0.029
				c-0.037,0-0.061-0.033-0.066-0.102c-0.051,0.102-0.131,0.154-0.236,0.182c-1.023,0.262-1.988,0.693-2.98,1.051
				c-0.06,0.023-0.124,0.043-0.189,0.047h-0.006c-0.066,0-0.121-0.047-0.145-0.113c-0.029-0.079,0-0.146,0.064-0.195
				c0.395-0.282,0.793-0.555,1.275-0.662c0.051,0.041,0.105,0.052,0.158,0.052c0.06,0,0.119-0.013,0.18-0.026
				c0.62-0.139,1.216-0.365,1.832-0.529c0.104-0.027,0.212-0.043,0.32-0.066c0.494-0.312,1.027-0.549,1.498-0.897
				c0.088-0.058,0.176-0.116,0.262-0.173c0.057-0.042,0.146-0.08,0.109-0.162c-0.012-0.027-0.036-0.036-0.066-0.036
				c-0.035,0-0.08,0.013-0.113,0.019c-0.043,0.004-0.092,0.008-0.127,0.027c-0.264,0.168-0.574,0.131-0.858,0.201
				c-0.114,0.021-0.226,0.07-0.343,0.07c-0.014,0-0.027-0.003-0.041-0.004c-0.152,0.094-0.314,0.166-0.488,0.206
				c-0.284,0.065-0.562,0.156-0.851,0.219c-0.114,0.025-0.202,0.079-0.269,0.175c-0.018,0.012-0.035,0.021-0.054,0.033
				c-0.056-0.029-0.116-0.046-0.174-0.046c-0.038,0-0.073,0.007-0.104,0.019c-0.377,0.174-0.79,0.218-1.18,0.336
				c-0.238,0.069-0.465,0.182-0.697,0.275c-0.636,0.258-1.264,0.537-1.643,1.166c-0.016,0.037-0.016,0.072-0.01,0.113
				c0.035-0.027,0.07-0.05,0.104-0.076c-0.017,0.042-0.032,0.088-0.048,0.132c-0.059,0.286-0.221,0.529-0.303,0.804
				c-0.053,0.094-0.152,0.154-0.182,0.264c-0.148,0.146-0.34,0.213-0.533,0.238c-0.018,0-0.033,0.003-0.049,0.003
				c-0.08,0.052-0.17,0.089-0.27,0.106C18.46,12.435,18.419,12.488,18.367,12.531z M21.651,10.104
				c-0.002-0.096-0.074-0.116-0.148-0.124C21.577,9.988,21.651,10.008,21.651,10.104z M21.089,10.234
				c-0.047,0.025-0.094,0.049-0.129,0.088c-0.007,0.007-0.016,0.015-0.023,0.022c0.008-0.008,0.017-0.016,0.023-0.023
				C20.995,10.283,21.042,10.26,21.089,10.234z M20.892,10.407c-0.001,0.012,0.002,0.024,0.011,0.039
				c0.009,0.018,0.024,0.021,0.04,0.021c-0.016,0-0.031-0.004-0.04-0.021C20.894,10.432,20.891,10.419,20.892,10.407z
				 M20.216,11.807c0.007-0.089,0.062-0.179,0.008-0.272c0.01-0.224,0.064-0.436,0.153-0.641c0.03-0.07,0.079-0.14,0.155-0.14
				c0.014,0,0.031,0.002,0.047,0.007c0.107,0.037,0.086,0.143,0.074,0.228c-0.022,0.153-0.123,0.269-0.18,0.404
				c-0.139,0.108-0.121,0.263-0.121,0.411c-0.053,0.097-0.074,0.201-0.093,0.31c-0.023,0.003-0.042,0.005-0.065,0.009
				C20.239,12.019,20.219,11.913,20.216,11.807z M18.555,12.661c0.03,0,0.06,0.009,0.085,0.018c0.006,0.002,0.016,0.004,0.023,0.006
				c0.008,0,0.014,0,0.019,0c0.289,0,0.562-0.133,0.847-0.133c0.039,0,0.078,0.002,0.117,0.006
				c-0.047-0.084-0.006-0.152,0.041-0.219c0.053-0.029,0.104-0.061,0.156-0.061c0.023,0,0.043,0.004,0.068,0.016
				c0.045,0.014,0.088,0.029,0.133,0.045c0.033-0.01,0.07-0.027,0.107-0.027c0.022,0,0.046,0.008,0.068,0.03
				c0,0.047,0.004,0.089,0.006,0.136c0.041-0.01,0.081-0.016,0.119-0.016c0.122,0,0.233,0.053,0.342,0.109
				c0.109,0.059,0.225,0.109,0.338,0.165c-0.229-0.003-0.449-0.046-0.676-0.046c-0.039,0-0.079,0-0.123,0.004
				c-0.023,0.065-0.052,0.125-0.135,0.127c-0.092,0.002-0.182,0.004-0.275,0.004c-0.404,0-0.808-0.021-1.209-0.119
				c-0.02-0.007-0.042-0.008-0.062-0.008c-0.027,0-0.057,0.003-0.083,0.003h-0.006c0.009-0.007,0.019-0.017,0.028-0.022
				c0.008-0.004,0.014-0.008,0.02-0.009C18.52,12.665,18.538,12.661,18.555,12.661z"/>
		</g>
		<rect x="42.534" y="1.397" fill="#FFFFFF" width="0.5" height="35.527"/>
	</g>
	<path fill="#FFFFFF" d="M31.181,2.5c2.382,0,4.319,1.952,4.319,4.353v24.299c0,2.397-1.938,4.349-4.319,4.349H6.818
		c-2.381,0-4.318-1.951-4.318-4.349V6.853c0-2.4,1.937-4.353,4.318-4.353H31.181 M31.181,1H6.818C3.608,1,1,3.624,1,6.853v24.299
		C1,34.378,3.608,37,6.818,37h24.363C34.39,37,37,34.378,37,31.151V6.853C37,3.624,34.39,1,31.181,1L31.181,1z"/>
</g>
</svg>
